<?xml version="1.0" encoding="UTF-8" standalone="no"?><!DOCTYPE svg PUBLIC "-//W3C//DTD SVG 1.1//EN" "http://www.w3.org/Graphics/SVG/1.1/DTD/svg11.dtd"><svg width="100%" height="100%" viewBox="0 0 194 194" version="1.1" xmlns="http://www.w3.org/2000/svg" xmlns:xlink="http://www.w3.org/1999/xlink" xml:space="preserve" xmlns:serif="http://www.serif.com/" style="fill-rule:evenodd;clip-rule:evenodd;stroke-linecap:round;stroke-linejoin:round;"><g><path d="M96.873,0c53.466,0 96.873,43.407 96.873,96.873c0,53.466 -43.407,96.873 -96.873,96.873c-53.466,0 -96.873,-43.407 -96.873,-96.873c0,-53.466 43.407,-96.873 96.873,-96.873Zm0,4.205c51.145,0 92.668,41.523 92.668,92.668c0,51.145 -41.523,92.668 -92.668,92.668c-51.145,0 -92.668,-41.523 -92.668,-92.668c0,-51.145 41.523,-92.668 92.668,-92.668Zm0,4.721c48.54,0 87.947,39.408 87.947,87.947c0,48.54 -39.407,87.947 -87.947,87.947c-48.539,0 -87.947,-39.407 -87.947,-87.947c0,-48.539 39.408,-87.947 87.947,-87.947Z" style="fill:#373b41;"/><g><path d="M58.592,111.092l0,-28.438c0,-21 17.281,-38.281 38.281,-38.281c21.001,0 38.281,17.281 38.281,38.281l0,28.438" style="fill:none;stroke:#fff;stroke-width:3.6px;"/><path d="M58.592,82.654l0,28.438c0,21 17.281,38.281 38.281,38.281c21.001,0 38.281,-17.281 38.281,-38.281l0,-28.438" style="fill:none;stroke:#fff;stroke-width:3.6px;"/><path d="M71.236,121.373c-2.559,-4.46 -3.902,-9.514 -3.894,-14.656l0,-24.063c-0.01,-6.438 2.097,-12.703 5.994,-17.828" style="fill:none;stroke:#fff;stroke-width:3.6px;"/><path d="M124.786,116.386c-4.09,11.879 -15.339,19.903 -27.903,19.903c-6.774,0 -13.345,-2.333 -18.604,-6.603" style="fill:none;stroke:#fff;stroke-width:3.6px;"/><path d="M126.404,79.373l0,28.438" style="fill:none;stroke:#fff;stroke-width:3.6px;"/><path d="M80.161,58.307c4.916,-3.376 10.742,-5.184 16.706,-5.184c9.786,0 18.957,4.867 24.44,12.972" style="fill:none;stroke:#fff;stroke-width:3.6px;"/><path d="M117.654,92.498l0,14.219c-0.005,8.212 -4.872,15.685 -12.381,19.009" style="fill:none;stroke:#fff;stroke-width:3.6px;"/><path d="M104.77,63.426c7.773,3.206 12.875,10.82 12.884,19.228" style="fill:none;stroke:#fff;stroke-width:3.6px;"/><path d="M77.732,74.582c3.244,-7.68 10.804,-12.7 19.141,-12.709" style="fill:none;stroke:#fff;stroke-width:3.6px;"/><path d="M76.092,99.061l0,-15.313" style="fill:none;stroke:#fff;stroke-width:3.6px;"/><path d="M96.873,127.498c-11.396,-0.012 -20.769,-9.385 -20.781,-20.781" style="fill:none;stroke:#fff;stroke-width:3.6px;"/><path d="M89.217,115.926c-2.752,-2.266 -4.357,-5.644 -4.375,-9.209l0,-24.063c-0.006,-3.191 1.262,-6.256 3.522,-8.509" style="fill:none;stroke:#fff;stroke-width:3.6px;"/><path d="M108.904,106.717c-0.012,6.595 -5.435,12.019 -12.031,12.031" style="fill:none;stroke:#fff;stroke-width:3.6px;"/><path d="M108.904,83.748l0,15.313" style="fill:none;stroke:#fff;stroke-width:3.6px;"/><path d="M96.873,70.623c3.191,-0.006 6.256,1.263 8.509,3.522" style="fill:none;stroke:#fff;stroke-width:3.6px;"/><path d="M100.154,106.717c0,1.8 -1.481,3.281 -3.281,3.281c-1.8,0 -3.281,-1.481 -3.281,-3.281l0,-14.219" style="fill:none;stroke:#fff;stroke-width:3.6px;"/><path d="M93.592,82.654c0,-1.8 1.481,-3.281 3.281,-3.281c1.8,0 3.281,1.481 3.281,3.281l0,14.219" style="fill:none;stroke:#fff;stroke-width:3.6px;"/></g></g></svg>
