<?xml version="1.0" encoding="UTF-8" standalone="no"?><!DOCTYPE svg PUBLIC "-//W3C//DTD SVG 1.1//EN" "http://www.w3.org/Graphics/SVG/1.1/DTD/svg11.dtd"><svg width="100%" height="100%" viewBox="0 0 194 194" version="1.1" xmlns="http://www.w3.org/2000/svg" xmlns:xlink="http://www.w3.org/1999/xlink" xml:space="preserve" xmlns:serif="http://www.serif.com/" style="fill-rule:evenodd;clip-rule:evenodd;stroke-linejoin:round;stroke-miterlimit:1.41421;"><path d="M96.873,0c53.466,0 96.873,43.407 96.873,96.873c0,53.466 -43.407,96.873 -96.873,96.873c-53.466,0 -96.873,-43.407 -96.873,-96.873c0,-53.466 43.407,-96.873 96.873,-96.873Zm0,4.205c51.145,0 92.668,41.523 92.668,92.668c0,51.145 -41.523,92.668 -92.668,92.668c-51.145,0 -92.668,-41.523 -92.668,-92.668c0,-51.145 41.523,-92.668 92.668,-92.668Zm0,4.721c48.54,0 87.947,39.408 87.947,87.947c0,48.54 -39.407,87.947 -87.947,87.947c-48.539,0 -87.947,-39.407 -87.947,-87.947c0,-48.539 39.408,-87.947 87.947,-87.947Z" style="fill:#373b41;"/><g id="Shape"><path d="M89.217,89.813c-2.88,0 -5.153,2.59 -5.153,5.75c0,3.159 2.324,5.749 5.153,5.749c2.88,0 5.153,-2.59 5.153,-5.749c0.051,-3.16 -2.273,-5.75 -5.153,-5.75Zm18.441,0c-2.88,0 -5.154,2.59 -5.154,5.75c0,3.159 2.324,5.749 5.154,5.749c2.879,0 5.153,-2.59 5.153,-5.749c0,-3.16 -2.274,-5.75 -5.153,-5.75Z" style="fill:#fff;fill-rule:nonzero;"/><path d="M131.118,46.693l-68.236,0c-5.755,0 -10.44,4.628 -10.44,10.363l0,68.015c0,5.735 4.685,10.364 10.44,10.364l57.746,0l-2.699,-9.307l6.519,5.986l6.161,5.635l10.949,9.558l0,-90.251c0,-5.735 -4.685,-10.363 -10.44,-10.363Zm-19.656,65.701c0,0 -1.833,-2.163 -3.361,-4.075c6.671,-1.861 9.217,-5.986 9.217,-5.986c-2.088,1.358 -4.074,2.314 -5.856,2.968c-2.546,1.056 -4.99,1.76 -7.384,2.163c-4.888,0.905 -9.37,0.654 -13.189,-0.05c-2.902,-0.554 -5.398,-1.359 -7.485,-2.164c-1.172,-0.452 -2.445,-1.006 -3.718,-1.71c-0.153,-0.101 -0.305,-0.151 -0.458,-0.252c-0.102,-0.05 -0.153,-0.1 -0.204,-0.151c-0.916,-0.503 -1.426,-0.855 -1.426,-0.855c0,0 2.445,4.025 8.912,5.936c-1.528,1.912 -3.412,4.176 -3.412,4.176c-11.254,-0.352 -15.532,-7.647 -15.532,-7.647c0,-16.199 7.333,-29.329 7.333,-29.329c7.333,-5.433 14.31,-5.282 14.31,-5.282l0.509,0.604c-9.166,2.616 -13.393,6.59 -13.393,6.59c0,0 1.121,-0.604 3.005,-1.459c5.448,-2.364 9.777,-3.018 11.559,-3.169c0.306,-0.051 0.56,-0.101 0.866,-0.101c3.106,-0.402 6.62,-0.503 10.286,-0.101c4.838,0.554 10.032,1.962 15.328,4.83c0,0 -4.023,-3.773 -12.68,-6.389l0.713,-0.805c0,0 6.977,-0.151 14.31,5.282c0,0 7.333,13.13 7.333,29.329c0,0 -4.329,7.295 -15.583,7.647Z" style="fill:#fff;fill-rule:nonzero;"/></g></svg>