<?xml version="1.0" encoding="UTF-8" standalone="no"?><!DOCTYPE svg PUBLIC "-//W3C//DTD SVG 1.1//EN" "http://www.w3.org/Graphics/SVG/1.1/DTD/svg11.dtd"><svg width="100%" height="100%" viewBox="0 0 194 194" version="1.1" xmlns="http://www.w3.org/2000/svg" xmlns:xlink="http://www.w3.org/1999/xlink" xml:space="preserve" xmlns:serif="http://www.serif.com/" style="fill-rule:evenodd;clip-rule:evenodd;stroke-linejoin:round;stroke-miterlimit:1.41421;"><path d="M96.873,0c53.466,0 96.873,43.407 96.873,96.873c0,53.466 -43.407,96.873 -96.873,96.873c-53.466,0 -96.873,-43.407 -96.873,-96.873c0,-53.466 43.407,-96.873 96.873,-96.873Zm0,4.205c51.145,0 92.668,41.523 92.668,92.668c0,51.145 -41.523,92.668 -92.668,92.668c-51.145,0 -92.668,-41.523 -92.668,-92.668c0,-51.145 41.523,-92.668 92.668,-92.668Zm0,4.721c48.54,0 87.947,39.408 87.947,87.947c0,48.54 -39.407,87.947 -87.947,87.947c-48.539,0 -87.947,-39.407 -87.947,-87.947c0,-48.539 39.408,-87.947 87.947,-87.947Z" style="fill:#373b41;"/><path id="send" d="M137.769,93.103l-77.196,-38.813c-3.881,-1.725 -8.194,1.725 -6.469,5.606l10.782,28.894l49.163,8.194l-49.163,8.194l-10.782,28.895c-1.293,3.881 2.588,7.331 6.469,5.175l77.196,-38.814c3.018,-1.293 3.018,-5.606 0,-7.331Z" style="fill:#fff;fill-rule:nonzero;"/></svg>