<?xml version="1.0" encoding="UTF-8" standalone="no"?><!DOCTYPE svg PUBLIC "-//W3C//DTD SVG 1.1//EN" "http://www.w3.org/Graphics/SVG/1.1/DTD/svg11.dtd"><svg width="100%" height="100%" viewBox="0 0 194 194" version="1.1" xmlns="http://www.w3.org/2000/svg" xmlns:xlink="http://www.w3.org/1999/xlink" xml:space="preserve" xmlns:serif="http://www.serif.com/" style="fill-rule:evenodd;clip-rule:evenodd;stroke-linejoin:round;stroke-miterlimit:1.41421;"><path d="M96.873,0c53.466,0 96.873,43.407 96.873,96.873c0,53.466 -43.407,96.873 -96.873,96.873c-53.466,0 -96.873,-43.407 -96.873,-96.873c0,-53.466 43.407,-96.873 96.873,-96.873Zm0,4.205c51.145,0 92.668,41.523 92.668,92.668c0,51.145 -41.523,92.668 -92.668,92.668c-51.145,0 -92.668,-41.523 -92.668,-92.668c0,-51.145 41.523,-92.668 92.668,-92.668Zm0,4.721c48.54,0 87.947,39.408 87.947,87.947c0,48.54 -39.407,87.947 -87.947,87.947c-48.539,0 -87.947,-39.407 -87.947,-87.947c0,-48.539 39.408,-87.947 87.947,-87.947Z" style="fill:#373b41;"/><path id="f_2_" d="M105.12,151.81l0,-48.72l16.24,0l4.06,-20.3l-20.3,0l0,-8.12c0,-8.12 4.068,-12.18 12.18,-12.18l8.12,0l0,-20.3c-4.06,0 -9.094,0 -16.24,0c-14.92,0 -24.36,11.697 -24.36,28.42l0,12.18l-16.24,0l0,20.3l16.24,0l0,48.72l20.3,0Z" style="fill:#fff;fill-rule:nonzero;"/></svg>