<?xml version="1.0" encoding="UTF-8" standalone="no"?><!DOCTYPE svg PUBLIC "-//W3C//DTD SVG 1.1//EN" "http://www.w3.org/Graphics/SVG/1.1/DTD/svg11.dtd"><svg width="100%" height="100%" viewBox="0 0 45 32" version="1.1" xmlns="http://www.w3.org/2000/svg" xmlns:xlink="http://www.w3.org/1999/xlink" xml:space="preserve" xmlns:serif="http://www.serif.com/" style="fill-rule:evenodd;clip-rule:evenodd;stroke-linejoin:round;stroke-miterlimit:1.41421;"><path d="M23.963,21.186l-0.006,0.001c-0.007,0.002 -0.014,0.003 -0.02,0.005c-0.002,0 -0.003,0.001 -0.005,0.001c-0.005,0 -0.009,0.002 -0.014,0.003c-0.014,0.003 -0.028,0.006 -0.042,0.008c-0.003,0.001 -0.006,0.001 -0.009,0.002c0.008,-0.004 0.033,-0.014 0.071,-0.033c0.002,0 0.002,-0.002 0.003,-0.002c0.017,-0.006 0.031,-0.014 0.046,-0.021c0.539,-0.265 2.789,-1.404 4.898,-3.006c0.001,-0.002 0.004,-0.003 0.006,-0.005c0.003,-0.002 0.006,-0.005 0.009,-0.006c0.001,-0.001 0.002,-0.002 0.003,-0.002c0.014,-0.012 0.028,-0.023 0.043,-0.034c0.005,-0.004 0.008,-0.007 0.013,-0.011c0.005,-0.004 0.011,-0.007 0.015,-0.012c0.029,-0.021 0.057,-0.044 0.087,-0.067c0.015,-0.011 0.03,-0.022 0.044,-0.034c0.001,0 0.002,-0.001 0.004,-0.002c0.018,-0.015 0.037,-0.03 0.055,-0.045c0.054,-0.044 0.107,-0.088 0.161,-0.131c0.053,-0.042 0.106,-0.086 0.159,-0.13l0.001,-0.002c0.104,-0.085 0.207,-0.173 0.309,-0.26c0.102,-0.088 0.203,-0.176 0.303,-0.265c0.007,-0.006 0.014,-0.012 0.021,-0.019c0.08,-0.071 0.16,-0.143 0.239,-0.215c0.03,-0.027 0.058,-0.054 0.088,-0.08c0.082,-0.077 0.164,-0.154 0.245,-0.23c0.035,-0.033 0.068,-0.067 0.102,-0.102l0.001,-0.001c0.002,-0.002 0.002,-0.002 0.003,-0.003c0.003,-0.003 0.005,-0.005 0.008,-0.008c0.785,-0.793 1.651,-1.833 2.601,-2.908c0.002,-0.003 0.003,-0.003 0.003,-0.006c0.002,0 0.003,-0.002 0.005,-0.002c0.009,-0.012 0.017,-0.021 0.026,-0.031c0.001,-0.001 0.003,-0.002 0.005,-0.004c0.199,-0.228 0.405,-0.458 0.614,-0.687c0,-0.001 0.003,-0.003 0.003,-0.004l0.002,-0.001c1.023,-1.119 2.134,-2.223 3.337,-3.073c0.002,-0.001 0.003,-0.002 0.005,-0.003c0.449,-0.319 0.914,-0.603 1.391,-0.838c0.002,-0.001 0.004,-0.002 0.006,-0.003c0.057,-0.028 0.114,-0.056 0.172,-0.082c0.002,0 0.003,-0.001 0.005,-0.001c0.356,-0.167 0.721,-0.305 1.094,-0.409c0.003,-0.002 0.005,-0.002 0.008,-0.002c0.004,-0.001 0.008,-0.003 0.012,-0.004c0.004,-0.002 0.009,-0.003 0.014,-0.004c0.006,-0.003 0.012,-0.006 0.017,-0.008c0.002,-0.001 0.003,-0.001 0.005,-0.002c0.001,-0.001 0.003,-0.001 0.005,-0.001c0.001,-0.001 0.001,-0.001 0.002,-0.001c0.003,-0.001 0.006,-0.002 0.008,-0.003c0.032,-0.011 0.062,-0.021 0.093,-0.032c0.031,-0.01 0.062,-0.02 0.094,-0.029c0.031,-0.01 0.063,-0.018 0.095,-0.027c0.032,-0.009 0.064,-0.017 0.096,-0.024c0.032,-0.008 0.065,-0.016 0.097,-0.022c0.034,-0.008 0.066,-0.013 0.1,-0.019c0.03,-0.006 0.062,-0.01 0.095,-0.016c0.001,0 0.003,0 0.004,-0.001c0.031,-0.004 0.062,-0.008 0.093,-0.011l0.002,-0.001l0.004,0c0.035,-0.004 0.073,-0.009 0.109,-0.013c0.038,-0.003 0.076,-0.008 0.115,-0.009c0.014,-0.001 0.029,-0.002 0.043,-0.003c0.004,0 0.009,0 0.012,-0.001c0.007,0 0.013,-0.001 0.018,-0.001c0.012,0 0.023,-0.001 0.033,-0.001l0.013,0c0.028,-0.001 0.056,-0.002 0.085,-0.002l0.024,0c0.028,0 0.054,0 0.081,0.001c0.026,0.001 0.053,0.003 0.079,0.004l0.028,0c0.052,-0.003 0.106,-0.005 0.16,-0.005l-0.016,0.015l-0.001,0.002l0.069,0.007l0.002,0c0.024,0.002 0.047,0.006 0.071,0.009c0.012,0.001 0.025,0.002 0.037,0.004c0.007,0.001 0.014,0.002 0.021,0.003c0.036,0.005 0.072,0.011 0.108,0.018c0.003,0 0.006,0 0.01,0.001c0.009,0.002 0.018,0.004 0.027,0.006c0.003,0.001 0.006,0.001 0.009,0.002c0.016,0.002 0.034,0.005 0.051,0.009c0.017,0.004 0.034,0.008 0.051,0.012c0.013,0.002 0.025,0.005 0.038,0.008c0.01,0.002 0.02,0.005 0.03,0.006c0.008,0.003 0.017,0.004 0.026,0.006c0.015,0.003 0.03,0.008 0.044,0.012c0.012,0.003 0.023,0.006 0.035,0.01c0.029,0.008 0.057,0.016 0.087,0.025c0.009,0.002 0.018,0.005 0.027,0.008c0.058,0.017 0.113,0.036 0.169,0.056c0.057,0.019 0.111,0.04 0.165,0.062c0.002,0.001 0.005,0.002 0.006,0.002c0.053,0.023 0.103,0.047 0.154,0.072c0.057,0.026 0.113,0.055 0.168,0.085c0.028,0.015 0.055,0.031 0.083,0.046l0.081,0.048l0.001,0l0.035,0.022c0.044,0.027 0.087,0.055 0.129,0.085c0.009,0.005 0.018,0.011 0.027,0.017c0.031,0.023 0.061,0.044 0.092,0.066c0.03,0.023 0.06,0.046 0.09,0.069c0.025,0.021 0.05,0.042 0.076,0.062c0.009,0.008 0.018,0.015 0.026,0.022c0.066,0.058 0.131,0.117 0.193,0.179c0.047,0.046 0.092,0.094 0.137,0.142c0.015,0.017 0.031,0.034 0.045,0.052c0.017,0.018 0.034,0.038 0.05,0.058c0.018,0.021 0.037,0.044 0.055,0.067c0.017,0.023 0.035,0.045 0.053,0.068c0.018,0.023 0.034,0.047 0.051,0.07c0.014,0.021 0.029,0.041 0.043,0.061c0.019,0.027 0.037,0.055 0.055,0.082c0.064,0.097 0.122,0.197 0.175,0.301c0.013,0.026 0.026,0.052 0.039,0.078c0.025,0.052 0.049,0.106 0.073,0.159c0.012,0.027 0.022,0.053 0.033,0.081c0.022,0.054 0.041,0.11 0.061,0.165c0.002,0.007 0.005,0.014 0.006,0.021l0.015,0.041c0.002,0.007 0.004,0.014 0.006,0.021c0.009,0.029 0.017,0.057 0.026,0.086c0.008,0.028 0.016,0.056 0.023,0.085c0.015,0.058 0.029,0.115 0.041,0.173c0.005,0.03 0.011,0.06 0.016,0.089c0.011,0.059 0.02,0.118 0.028,0.178c0.008,0.061 0.015,0.121 0.018,0.181c0.003,0.03 0.005,0.06 0.006,0.092c0.002,0.026 0.003,0.051 0.003,0.077c0.001,0.034 0.002,0.068 0.002,0.102l0,0.005c0,0.037 -0.001,0.073 -0.002,0.109c-0.001,0.028 -0.002,0.056 -0.004,0.084c0,0.026 -0.002,0.05 -0.003,0.074c-0.002,0.025 -0.004,0.052 -0.007,0.077c-0.002,0.025 -0.005,0.051 -0.009,0.078c0,0.003 -0.001,0.007 -0.001,0.011l0,0.001c0,0.001 0,0.002 -0.001,0.003c-0.003,0.022 -0.008,0.041 -0.014,0.062c-0.025,0.181 -0.063,0.357 -0.115,0.528c0,0.002 -0.001,0.003 -0.001,0.005c-0.031,0.101 -0.065,0.2 -0.105,0.297c-0.007,0.021 -0.013,0.044 -0.022,0.065c0,0.001 0,0.002 0,0.003c-0.064,0.149 -0.137,0.291 -0.22,0.428c-0.001,0.003 -0.002,0.006 -0.004,0.008c-0.567,1.147 -1.357,2.164 -2.318,2.993c-0.291,0.254 -0.647,0.423 -0.968,0.639c0.383,-0.324 0.672,-0.762 0.892,-1.218c0.121,-0.25 0.213,-0.517 0.272,-0.794c0.052,-0.242 0.08,-0.493 0.08,-0.749c0,-0.069 -0.002,-0.137 -0.006,-0.204l0,-0.002c-0.011,-0.196 -0.039,-0.386 -0.08,-0.572c-0.166,-0.416 -0.559,-0.721 -1.028,-0.763c-0.012,-0.002 -0.024,-0.003 -0.038,-0.004l-0.004,0c-0.002,-0.001 -0.005,-0.001 -0.007,-0.001l-0.007,0c-0.021,-0.001 -0.042,-0.001 -0.065,-0.001c-0.03,0 -0.06,0.001 -0.089,0.003c-0.059,0.005 -0.116,0.013 -0.174,0.025l-0.003,0c-0.027,0.006 -0.054,0.014 -0.08,0.022c-0.025,0.006 -0.049,0.014 -0.072,0.023c-0.018,0.006 -0.038,0.013 -0.056,0.021c-0.019,0.007 -0.036,0.016 -0.054,0.025c-0.023,0.01 -0.044,0.021 -0.065,0.033c-0.001,0 -0.001,0.002 -0.002,0.002c-0.012,0.005 -0.027,0.012 -0.038,0.021c-0.022,0.013 -0.044,0.027 -0.065,0.042c-0.019,0.013 -0.039,0.027 -0.058,0.042c-0.145,0.11 -0.264,0.253 -0.346,0.417c-0.001,0.001 -0.001,0.003 -0.003,0.004c-0.023,0.047 -0.043,0.098 -0.061,0.152c-0.039,0.11 -0.061,0.229 -0.062,0.352c-0.002,0.003 -0.002,0.006 -0.002,0.009c-0.003,0.03 -0.005,0.062 -0.007,0.094c-0.014,0.241 -0.008,0.528 -0.008,0.868c-0.002,0.286 -0.008,0.612 -0.035,0.982c0,0.016 -0.001,0.032 -0.003,0.049c-0.052,0.628 -0.141,1.247 -0.267,1.852c-0.016,0.076 -0.032,0.152 -0.049,0.226c-0.03,0.141 -0.064,0.281 -0.099,0.421l0.005,0l-0.046,0.176c-0.015,0.057 -0.031,0.114 -0.048,0.171l0,0.003c-0.021,0.077 -0.044,0.155 -0.066,0.232c-0.003,0.011 -0.006,0.021 -0.01,0.032c-0.01,0.035 -0.021,0.07 -0.032,0.104c-0.027,0.089 -0.056,0.18 -0.084,0.269c-0.001,0.002 -0.001,0.003 -0.002,0.005c-0.015,0.045 -0.028,0.088 -0.044,0.132c-0.015,0.045 -0.03,0.089 -0.045,0.133c-0.008,0.022 -0.016,0.046 -0.024,0.069c-0.034,0.095 -0.068,0.19 -0.103,0.284c-0.031,0.082 -0.063,0.164 -0.095,0.246c-0.016,0.04 -0.032,0.08 -0.048,0.12c-0.017,0.044 -0.035,0.087 -0.053,0.13c-0.018,0.044 -0.037,0.087 -0.054,0.129c-0.045,0.103 -0.09,0.206 -0.136,0.309c-0.044,0.099 -0.09,0.197 -0.136,0.294c-0.002,0.003 -0.003,0.007 -0.005,0.01c-0.043,0.09 -0.088,0.179 -0.132,0.268c-0.006,0.013 -0.013,0.026 -0.019,0.037c-0.039,0.078 -0.079,0.156 -0.12,0.234c-0.011,0.02 -0.022,0.04 -0.032,0.06c-0.045,0.085 -0.091,0.169 -0.137,0.252c-0.002,0.002 -0.003,0.004 -0.004,0.006c-0.043,0.078 -0.088,0.156 -0.133,0.233c-0.016,0.031 -0.034,0.06 -0.052,0.089c-0.042,0.073 -0.086,0.145 -0.13,0.218c-0.006,0.009 -0.012,0.018 -0.017,0.027c-0.044,0.072 -0.089,0.144 -0.136,0.216c0,0.001 0,0.002 -0.001,0.003c-0.065,0.101 -0.131,0.2 -0.197,0.299c-0.002,0.002 -0.003,0.005 -0.005,0.007c-0.053,0.082 -0.11,0.163 -0.167,0.243c-0.057,0.084 -0.116,0.166 -0.176,0.248c-0.043,0.059 -0.087,0.117 -0.131,0.176c-0.043,0.058 -0.086,0.115 -0.132,0.172c-0.096,0.126 -0.195,0.249 -0.296,0.372c-0.028,0.035 -0.057,0.069 -0.085,0.103c-0.002,0.003 -0.005,0.006 -0.007,0.009c-0.102,0.121 -0.206,0.24 -0.311,0.358l0,0.001l-0.002,0.002l-0.001,0.001c-0.039,0.044 -0.078,0.087 -0.118,0.131c-0.03,0.032 -0.058,0.063 -0.089,0.095c-0.032,0.036 -0.066,0.072 -0.1,0.108l-0.005,0.005c-0.122,0.129 -0.246,0.256 -0.373,0.38c-0.03,0.029 -0.06,0.058 -0.089,0.087c-0.03,0.029 -0.06,0.058 -0.09,0.087c-0.008,0.007 -0.016,0.015 -0.025,0.023c-0.031,0.029 -0.06,0.057 -0.091,0.085c-0.03,0.029 -0.059,0.057 -0.091,0.085c-0.139,0.128 -0.281,0.253 -0.424,0.378c-0.038,0.032 -0.076,0.064 -0.115,0.096c-0.02,0.016 -0.04,0.034 -0.061,0.05c-0.037,0.031 -0.075,0.063 -0.113,0.094c-0.091,0.074 -0.182,0.146 -0.274,0.22c-0.006,0.004 -0.012,0.009 -0.018,0.014c-0.085,0.067 -0.173,0.133 -0.26,0.198c-0.087,0.065 -0.175,0.129 -0.263,0.191c-0.006,0.005 -0.013,0.009 -0.019,0.014c-0.016,0.012 -0.031,0.022 -0.047,0.034c-0.011,0.008 -0.021,0.015 -0.032,0.021c-0.002,0.002 -0.005,0.005 -0.008,0.007l-0.018,0.012c-0.003,0.002 -0.006,0.004 -0.009,0.006c-0.075,0.052 -0.151,0.105 -0.228,0.156c-0.013,0.01 -0.027,0.018 -0.041,0.027c-0.096,0.064 -0.194,0.127 -0.291,0.19c-0.001,0.001 -0.003,0.002 -0.006,0.003c-0.09,0.057 -0.18,0.113 -0.271,0.169c-0.009,0.005 -0.018,0.01 -0.027,0.015c-0.062,0.038 -0.124,0.075 -0.185,0.11c-0.013,0.008 -0.026,0.015 -0.039,0.022c-0.033,0.021 -0.068,0.04 -0.102,0.061c-0.006,0.002 -0.012,0.005 -0.018,0.009c-0.003,0.002 -0.006,0.004 -0.011,0.006c-0.094,0.055 -0.191,0.108 -0.286,0.16c-0.026,0.015 -0.052,0.028 -0.078,0.043c-0.019,0.01 -0.037,0.02 -0.056,0.028c-0.069,0.037 -0.139,0.073 -0.21,0.109c-0.001,0 -0.001,0 -0.003,0.001c-0.018,0.012 -0.039,0.021 -0.058,0.031c-0.013,0.006 -0.023,0.012 -0.035,0.017c-0.092,0.046 -0.186,0.092 -0.279,0.136c-0.013,0.005 -0.024,0.012 -0.037,0.017c-0.069,0.033 -0.137,0.065 -0.207,0.096c-0.011,0.005 -0.023,0.011 -0.033,0.016c-0.037,0.016 -0.072,0.033 -0.108,0.048c-0.001,0.001 -0.002,0.001 -0.003,0.001l-0.005,0.002c-0.001,0.001 -0.002,0.001 -0.002,0.001c-0.095,0.042 -0.19,0.083 -0.285,0.124c-0.005,0.002 -0.009,0.004 -0.014,0.005c-0.006,0.003 -0.012,0.006 -0.018,0.008c-0.005,0.002 -0.01,0.004 -0.015,0.007c-0.041,0.016 -0.082,0.032 -0.123,0.05c-0.066,0.027 -0.131,0.053 -0.198,0.078c-0.015,0.007 -0.031,0.013 -0.046,0.019c-0.016,0.006 -0.032,0.012 -0.048,0.017c-0.004,0.002 -0.009,0.004 -0.014,0.006c0,0 -0.001,0 -0.001,0.002c-0.002,0.001 -0.004,0.002 -0.006,0.003c-0.052,0.026 -0.104,0.051 -0.156,0.077c-0.027,0.012 -0.052,0.025 -0.078,0.038c-0.026,0.012 -0.052,0.024 -0.078,0.037c-0.012,0.005 -0.024,0.01 -0.036,0.016c-0.071,0.034 -0.144,0.068 -0.217,0.1c-0.03,0.015 -0.06,0.028 -0.092,0.042c-0.048,0.021 -0.096,0.043 -0.144,0.063c-0.024,0.011 -0.048,0.021 -0.071,0.031c-0.044,0.019 -0.09,0.038 -0.135,0.057c-0.066,0.029 -0.133,0.056 -0.2,0.083c-0.051,0.02 -0.102,0.04 -0.153,0.06c-0.047,0.019 -0.094,0.037 -0.142,0.056l-0.046,0.017c-0.058,0.022 -0.114,0.042 -0.17,0.061c-0.099,0.037 -0.198,0.072 -0.298,0.105c-0.019,0.006 -0.039,0.014 -0.059,0.02l-0.002,0.002c-0.001,0.001 -0.002,0.001 -0.003,0.001c-0.001,0 -0.003,0 -0.005,0c-0.084,0.029 -0.167,0.056 -0.253,0.082c-0.029,0.011 -0.059,0.019 -0.089,0.029c-0.029,0.009 -0.058,0.018 -0.088,0.026c-0.066,0.021 -0.132,0.041 -0.2,0.059c-0.002,0 -0.005,0.002 -0.006,0.002c-0.056,0.017 -0.111,0.032 -0.167,0.046c-0.007,0.003 -0.016,0.004 -0.023,0.008c-0.019,0.005 -0.039,0.01 -0.057,0.016c-0.002,0 -0.003,0.002 -0.005,0.002c-0.018,0.003 -0.034,0.008 -0.051,0.012c-0.009,0.002 -0.018,0.005 -0.027,0.006c-0.005,0.002 -0.01,0.003 -0.015,0.005c-0.006,0.001 -0.01,0.003 -0.016,0.004c-0.023,0.007 -0.044,0.013 -0.067,0.019c-0.023,0.006 -0.044,0.011 -0.067,0.016c-0.02,0.006 -0.041,0.011 -0.062,0.016c-0.021,0.005 -0.042,0.011 -0.062,0.016c-0.042,0.011 -0.084,0.02 -0.125,0.029c-0.027,0.007 -0.054,0.014 -0.082,0.019c-0.027,0.007 -0.054,0.013 -0.081,0.019l-0.038,0.009l-0.003,0l-0.018,0.004c-0.007,0.001 -0.013,0.002 -0.02,0.004c-0.088,0.02 -0.178,0.039 -0.267,0.057c-0.089,0.018 -0.18,0.035 -0.269,0.051c-0.051,0.009 -0.104,0.02 -0.158,0.028c-0.052,0.01 -0.104,0.018 -0.157,0.027c-0.053,0.008 -0.107,0.016 -0.161,0.024c-0.026,0.004 -0.05,0.008 -0.076,0.011c-0.037,0.006 -0.075,0.012 -0.113,0.017c-0.03,0.004 -0.058,0.008 -0.088,0.012c-0.006,0.001 -0.012,0.001 -0.017,0.001c-0.004,0.002 -0.01,0.002 -0.016,0.003c-0.027,0.003 -0.054,0.007 -0.081,0.01c-0.027,0.004 -0.055,0.007 -0.081,0.01c-0.002,0.001 -0.005,0.001 -0.008,0.002l-0.012,0.001l-0.003,0l-0.011,0.002c-0.09,0.011 -0.181,0.02 -0.273,0.03c-0.005,0.001 -0.008,0.001 -0.013,0.002c-0.027,0.002 -0.053,0.005 -0.08,0.007c-0.078,0.007 -0.158,0.014 -0.237,0.02c-0.01,0.001 -0.017,0.001 -0.026,0.002c-0.024,0.003 -0.049,0.004 -0.074,0.006c-0.005,0 -0.011,0.001 -0.016,0.001c-0.006,0.001 -0.012,0.001 -0.018,0.002c-0.038,0.003 -0.076,0.005 -0.115,0.008c-0.005,0 -0.011,0 -0.015,0.001c-0.034,0.001 -0.066,0.002 -0.1,0.003c-0.005,0.002 -0.01,0.002 -0.016,0.002c-0.007,0.001 -0.014,0.001 -0.022,0.001c-0.009,0.001 -0.019,0.002 -0.027,0.002c-0.009,0.001 -0.019,0.001 -0.029,0.001c-0.002,0 -0.005,0.001 -0.007,0.001c-0.007,0.001 -0.014,0.002 -0.02,0.001c-0.063,0.004 -0.127,0.006 -0.191,0.009c-0.038,0.002 -0.076,0.003 -0.116,0.004c-0.025,0.001 -0.05,0.002 -0.074,0.002c-0.045,0.002 -0.089,0.003 -0.134,0.003c-0.023,0 -0.045,0.001 -0.068,0.001c-0.068,0.001 -0.135,0.002 -0.203,0.002c-0.067,0 -0.134,-0.001 -0.2,-0.002c-0.023,0 -0.045,-0.001 -0.068,-0.001c-0.045,-0.001 -0.091,-0.002 -0.136,-0.003c-0.032,0 -0.063,-0.001 -0.095,-0.002c-0.035,-0.001 -0.072,-0.002 -0.107,-0.005c-0.011,0 -0.022,0 -0.034,-0.001c-0.056,-0.002 -0.111,-0.005 -0.166,-0.008c-0.018,0 -0.035,-0.001 -0.051,-0.002c-0.011,0 -0.023,-0.002 -0.032,-0.002c-0.086,-0.004 -0.171,-0.009 -0.256,-0.015c-0.001,0 -0.003,0 -0.004,-0.001l-0.01,-0.001c-0.001,0 -0.003,0 -0.004,0c-0.015,-0.001 -0.029,-0.002 -0.042,-0.004c-0.035,-0.002 -0.068,-0.004 -0.103,-0.008c-0.032,-0.002 -0.064,-0.005 -0.096,-0.008c-0.059,-0.005 -0.118,-0.01 -0.177,-0.016c-0.089,-0.009 -0.179,-0.019 -0.269,-0.029c-0.086,-0.011 -0.171,-0.021 -0.256,-0.032c0.076,-0.01 0.151,-0.022 0.226,-0.033c0.003,0 0.006,-0.001 0.009,-0.001c0.005,-0.001 0.01,-0.002 0.015,-0.003c0.005,-0.001 0.012,-0.002 0.018,-0.003c0.036,-0.006 0.073,-0.011 0.109,-0.017c0.016,-0.002 0.032,-0.004 0.047,-0.006c0.017,-0.003 0.034,-0.005 0.05,-0.008c0.055,-0.01 0.111,-0.019 0.166,-0.028c0.001,-0.001 0.003,-0.001 0.004,-0.001c0.001,0 0.001,-0.001 0.002,-0.001c0.003,0 0.006,0 0.009,-0.001c0.001,0 0.003,0 0.004,-0.001c0.102,-0.018 0.205,-0.037 0.305,-0.058c0.002,-0.001 0.004,-0.001 0.005,-0.001c0.001,0 0.002,0 0.003,0c0.014,-0.004 0.027,-0.006 0.039,-0.009c0.016,-0.002 0.031,-0.005 0.046,-0.008c0.015,-0.003 0.03,-0.007 0.046,-0.01c0.065,-0.012 0.129,-0.026 0.194,-0.042c0.008,-0.001 0.015,-0.003 0.022,-0.003c0.014,-0.003 0.029,-0.007 0.044,-0.01c0.035,-0.009 0.071,-0.016 0.107,-0.024c0.047,-0.011 0.093,-0.023 0.14,-0.033c0,-0.001 0.001,-0.001 0.003,-0.001c0.044,-0.012 0.09,-0.023 0.134,-0.035c0.011,-0.003 0.025,-0.006 0.037,-0.009c0.003,0 0.006,-0.001 0.009,-0.001c0.003,-0.001 0.007,-0.002 0.009,-0.002c0.001,-0.001 0.002,-0.001 0.003,-0.001c0.013,-0.004 0.027,-0.007 0.041,-0.011c0.047,-0.011 0.095,-0.024 0.142,-0.038c0.125,-0.032 0.248,-0.067 0.372,-0.103c0.052,-0.015 0.102,-0.03 0.152,-0.045l0.002,-0.001l0.001,0l0.001,-0.001c0.009,-0.003 0.016,-0.006 0.025,-0.009c0.061,-0.018 0.122,-0.038 0.183,-0.057c0.002,-0.001 0.004,-0.001 0.005,-0.001c0.031,-0.01 0.061,-0.021 0.092,-0.03c0.031,-0.011 0.063,-0.022 0.093,-0.032c0.118,-0.04 0.237,-0.082 0.355,-0.125c0.118,-0.042 0.238,-0.087 0.357,-0.134c0.118,-0.045 0.238,-0.093 0.354,-0.143c0.051,-0.021 0.104,-0.042 0.156,-0.065c0.011,-0.005 0.022,-0.009 0.033,-0.013c0.005,-0.002 0.009,-0.004 0.014,-0.007c0.012,-0.006 0.025,-0.011 0.037,-0.017l0.075,-0.034c0.013,-0.006 0.025,-0.011 0.038,-0.017c0.116,-0.051 0.231,-0.105 0.346,-0.159l0.001,0l0.004,-0.002l0.073,-0.036c0.004,-0.001 0.007,-0.003 0.011,-0.005c0.07,-0.033 0.139,-0.068 0.209,-0.102c0.069,-0.035 0.137,-0.07 0.206,-0.106c0.001,0 0.002,-0.001 0.003,-0.001c0.055,-0.029 0.109,-0.058 0.164,-0.088c0.056,-0.03 0.111,-0.06 0.166,-0.09c0.001,-0.001 0.002,-0.001 0.003,-0.001c0.109,-0.06 0.217,-0.121 0.324,-0.184c0.002,-0.001 0.003,-0.002 0.004,-0.002c0.026,-0.017 0.053,-0.032 0.079,-0.048c0.027,-0.015 0.053,-0.032 0.079,-0.048c0.05,-0.029 0.099,-0.058 0.147,-0.088c0.048,-0.029 0.097,-0.06 0.145,-0.09c0.001,-0.001 0.003,-0.001 0.004,-0.003c0.166,-0.103 0.329,-0.211 0.49,-0.322c0.059,-0.041 0.118,-0.084 0.178,-0.126c0.095,-0.067 0.191,-0.135 0.285,-0.206c0.101,-0.073 0.2,-0.148 0.299,-0.224c0.099,-0.078 0.196,-0.156 0.293,-0.236c0.039,-0.031 0.078,-0.064 0.118,-0.096c0.021,-0.017 0.042,-0.036 0.063,-0.053c0.036,-0.031 0.071,-0.061 0.107,-0.092c0.094,-0.079 0.188,-0.162 0.28,-0.246c0.091,-0.08 0.18,-0.161 0.267,-0.244c0.005,-0.005 0.01,-0.01 0.015,-0.014c0.089,-0.084 0.177,-0.17 0.262,-0.256c0.092,-0.089 0.179,-0.176 0.262,-0.266c0.082,-0.082 0.159,-0.166 0.236,-0.25c0.005,-0.006 0.011,-0.009 0.015,-0.015c0.002,-0.002 0.003,-0.003 0.005,-0.005c0,0 0.003,-0.001 0.003,-0.003c0.083,-0.091 0.167,-0.184 0.248,-0.277c0.085,-0.093 0.165,-0.188 0.243,-0.284c0.039,-0.044 0.076,-0.089 0.113,-0.135c0.003,-0.005 0.008,-0.009 0.011,-0.014c0.038,-0.047 0.076,-0.094 0.112,-0.141c0.323,-0.405 0.626,-0.828 0.908,-1.264c0.028,-0.044 0.056,-0.088 0.084,-0.133c0.016,-0.026 0.033,-0.053 0.049,-0.079c0.016,-0.026 0.032,-0.052 0.047,-0.079c0.041,-0.064 0.079,-0.129 0.118,-0.194c0.064,-0.109 0.128,-0.218 0.19,-0.327c0.06,-0.108 0.118,-0.217 0.176,-0.326c0.09,-0.17 0.177,-0.342 0.26,-0.516c0.028,-0.058 0.055,-0.115 0.083,-0.173c0.026,-0.059 0.054,-0.118 0.081,-0.176c0.051,-0.118 0.103,-0.235 0.154,-0.355c0.036,-0.087 0.072,-0.176 0.108,-0.264c0,-0.001 0,-0.003 0.002,-0.004c0.018,-0.045 0.036,-0.09 0.053,-0.136c0.018,-0.045 0.035,-0.089 0.052,-0.135c0.023,-0.063 0.046,-0.127 0.07,-0.191c0.036,-0.101 0.071,-0.203 0.105,-0.305c0.009,-0.025 0.017,-0.049 0.025,-0.073c0.024,-0.074 0.048,-0.149 0.071,-0.225c0.032,-0.097 0.061,-0.195 0.09,-0.293l0.032,-0.111c0.016,-0.056 0.032,-0.11 0.047,-0.166c0,-0.002 0.001,-0.004 0.001,-0.006c0.013,-0.047 0.026,-0.097 0.039,-0.146c0.034,-0.129 0.067,-0.258 0.098,-0.389l0,-0.001l0.001,-0.002l0,-0.001c0.017,-0.071 0.032,-0.142 0.047,-0.213c0.006,-0.025 0.012,-0.051 0.017,-0.078c0.009,-0.038 0.017,-0.077 0.025,-0.116c0.011,-0.053 0.022,-0.106 0.032,-0.159c0.01,-0.053 0.02,-0.106 0.03,-0.16c0.013,-0.069 0.025,-0.137 0.036,-0.206c0.012,-0.07 0.023,-0.139 0.034,-0.208c0.01,-0.064 0.019,-0.129 0.028,-0.193c0.012,-0.08 0.022,-0.16 0.033,-0.24c0.002,-0.024 0.005,-0.048 0.008,-0.073c0.009,-0.076 0.018,-0.153 0.026,-0.23c0.029,-0.284 0.051,-0.57 0.066,-0.859l-0.004,0.005c-0.155,0.123 -0.312,0.245 -0.471,0.363c-0.08,0.062 -0.161,0.123 -0.242,0.182c-0.014,0.01 -0.027,0.02 -0.039,0.029c-0.016,0.012 -0.032,0.023 -0.048,0.034c-0.001,0.001 -0.003,0.002 -0.004,0.003l-0.009,0.007c-0.001,0.001 -0.003,0.002 -0.004,0.003c-0.048,0.035 -0.096,0.069 -0.145,0.104c-0.083,0.059 -0.165,0.117 -0.248,0.176c-0.082,0.058 -0.165,0.115 -0.248,0.174c-0.085,0.056 -0.169,0.113 -0.252,0.169c-0.085,0.056 -0.169,0.111 -0.254,0.167c-0.084,0.057 -0.17,0.111 -0.255,0.165c-0.087,0.053 -0.172,0.108 -0.257,0.161c-0.029,0.018 -0.057,0.035 -0.086,0.052c-0.073,0.044 -0.145,0.088 -0.218,0.133c-0.073,0.042 -0.146,0.086 -0.22,0.129c-0.017,0.011 -0.035,0.021 -0.054,0.033c-0.004,0.002 -0.007,0.005 -0.011,0.007c-0.005,0.002 -0.008,0.005 -0.013,0.008c-0.009,0.005 -0.018,0.009 -0.027,0.015c-0.019,0.011 -0.039,0.023 -0.059,0.034c-0.011,0.006 -0.02,0.012 -0.031,0.017l-0.068,0.039c-0.003,0.001 -0.006,0.003 -0.009,0.005c-0.003,0.002 -0.006,0.004 -0.009,0.006c-0.001,0.001 -0.004,0.002 -0.007,0.004c-0.003,0.002 -0.007,0.004 -0.011,0.007c-0.002,0.001 -0.004,0.002 -0.006,0.003c-0.041,0.023 -0.082,0.046 -0.125,0.071l-0.001,0.002l-0.002,0l-0.052,0.029c-0.082,0.044 -0.164,0.089 -0.245,0.133c-0.099,0.053 -0.2,0.107 -0.3,0.159c-0.1,0.053 -0.201,0.105 -0.301,0.156c-0.102,0.051 -0.203,0.102 -0.306,0.152l0,0.001c-0.003,0.001 -0.004,0.002 -0.006,0.003c-0.027,0.013 -0.052,0.025 -0.079,0.037c-0.037,0.018 -0.074,0.037 -0.111,0.054c-0.005,0.002 -0.009,0.005 -0.014,0.007l-0.001,0l-0.001,0.001l-0.001,0l-0.019,0.009c-0.006,0.002 -0.012,0.006 -0.019,0.009c-0.185,0.087 -0.371,0.174 -0.557,0.256c-0.047,0.021 -0.094,0.042 -0.141,0.063c-0.047,0.021 -0.094,0.041 -0.14,0.061c-0.044,0.02 -0.09,0.039 -0.134,0.058c-0.05,0.021 -0.099,0.043 -0.149,0.063c-0.095,0.04 -0.19,0.079 -0.285,0.118c-0.095,0.037 -0.191,0.075 -0.287,0.113c-0.095,0.038 -0.192,0.074 -0.288,0.111c-0.024,0.009 -0.048,0.018 -0.072,0.027c-0.023,0.009 -0.048,0.018 -0.073,0.026c-0.047,0.018 -0.095,0.035 -0.145,0.053c-0.024,0.01 -0.05,0.018 -0.074,0.028c-0.008,0.003 -0.015,0.006 -0.023,0.009c-0.041,0.014 -0.083,0.029 -0.125,0.043c-0.023,0.009 -0.046,0.017 -0.069,0.025c-0.097,0.033 -0.193,0.066 -0.289,0.099c-0.1,0.033 -0.199,0.066 -0.299,0.098c-0.099,0.03 -0.198,0.062 -0.296,0.093c-0.063,0.019 -0.126,0.038 -0.19,0.057c-0.002,0 -0.005,0.001 -0.008,0.002l-0.017,0.005c-0.002,0.001 -0.005,0.001 -0.008,0.002c-0.009,0.003 -0.018,0.005 -0.026,0.008c-0.015,0.005 -0.03,0.009 -0.045,0.014c-0.001,0 -0.003,0 -0.006,0c-0.099,0.03 -0.199,0.059 -0.299,0.087c-0.017,0.005 -0.032,0.009 -0.048,0.014c-0.004,0.001 -0.009,0.003 -0.013,0.004c-0.066,0.018 -0.131,0.036 -0.197,0.053c-0.014,0.004 -0.029,0.008 -0.042,0.012c-0.2,0.054 -0.401,0.103 -0.602,0.153c-0.002,0 -0.003,0.001 -0.005,0.001c-0.09,0.022 -0.178,0.043 -0.268,0.063c-0.043,0.01 -0.086,0.019 -0.13,0.029c-0.005,0.001 -0.01,0.002 -0.015,0.004c-0.015,0.003 -0.031,0.007 -0.046,0.011l-0.008,0.001Zm-10.108,0.2c-0.834,0.15 -1.683,0.26 -2.543,0.326c-0.334,0.027 -0.67,0.047 -1.008,0.059c-0.332,0.014 -0.669,0.02 -1.004,0.02c-0.239,0 -0.477,-0.004 -0.714,-0.012c-0.022,0 -0.042,0 -0.064,-0.002c-1.11,-0.031 -2.205,-0.134 -3.275,-0.307c-0.005,-0.001 -0.011,-0.001 -0.017,-0.003c-0.214,-0.033 -0.427,-0.069 -0.639,-0.109c-0.006,-0.001 -0.011,-0.001 -0.016,-0.003c-0.165,-0.032 -0.331,-0.064 -0.494,-0.097c-0.241,-0.05 -0.482,-0.104 -0.718,-0.159c-0.009,-0.003 -0.017,-0.006 -0.026,-0.007c-0.127,-0.037 -0.25,-0.075 -0.368,-0.115c-1.007,-0.341 -1.661,-0.802 -2.084,-1.244c-0.002,-0.001 -0.003,-0.002 -0.005,-0.003c-0.214,-0.225 -0.371,-0.443 -0.482,-0.639c-0.256,-0.489 -0.398,-1.044 -0.398,-1.633c0,-0.824 0.279,-1.581 0.751,-2.186c0,-0.001 0.001,-0.003 0.004,-0.004c0.053,-0.07 0.109,-0.137 0.17,-0.203c0.006,-0.007 0.013,-0.015 0.02,-0.022c0.027,-0.032 0.057,-0.062 0.087,-0.092c0.199,-0.202 0.423,-0.382 0.665,-0.53l0.002,-0.001c0.222,-0.141 0.46,-0.257 0.712,-0.343c0.018,-0.007 0.037,-0.013 0.054,-0.019c0.124,-0.042 0.25,-0.078 0.379,-0.105c0.066,-0.014 0.133,-0.028 0.201,-0.038c0.179,-0.029 0.364,-0.044 0.553,-0.045c0.01,-0.001 0.02,-0.001 0.03,-0.001l0.021,0c0.19,0.001 0.376,0.016 0.557,0.045c0.208,0.033 0.412,0.084 0.607,0.152c0.026,0.009 0.051,0.017 0.075,0.027c-0.087,-0.022 -0.178,-0.035 -0.272,-0.037c-0.011,-0.001 -0.024,-0.001 -0.036,-0.001c-0.313,0 -0.599,0.117 -0.816,0.307c-0.003,0.003 -0.007,0.006 -0.01,0.009c-0.061,0.069 -0.122,0.137 -0.182,0.207c-0.005,0.005 -0.008,0.009 -0.011,0.014c-0.132,0.193 -0.209,0.428 -0.209,0.68c0,0.115 0.017,0.226 0.047,0.332c0.009,0.031 0.02,0.061 0.032,0.09c0.003,0.012 0.008,0.023 0.012,0.035c0.057,0.132 0.127,0.209 0.203,0.251c0.091,0.127 0.206,0.235 0.34,0.319c0.262,0.096 0.546,0.149 0.843,0.149c0.051,0 0.101,-0.002 0.151,-0.005c0.718,-0.044 1.35,-0.396 1.763,-0.927c0.304,-0.388 0.489,-0.871 0.502,-1.397c0.001,0 0.001,0 0.001,-0.002c0.002,-0.009 0.004,-0.019 0.005,-0.029c0.012,-0.143 0.027,-0.285 0.044,-0.427c0.001,-0.017 0.002,-0.025 0.002,-0.025l0.002,-0.001c0.017,-0.137 0.034,-0.275 0.054,-0.41c0.042,-0.295 0.094,-0.585 0.154,-0.874c0.037,-0.177 0.077,-0.352 0.121,-0.527c1.218,-4.959 4.848,-8.985 9.59,-10.792c1.117,-0.428 2.297,-0.731 3.521,-0.892c0.645,-0.087 1.301,-0.133 1.968,-0.139c0.047,-0.001 0.094,-0.001 0.141,-0.001l0.064,0c2.803,0.012 5.434,0.75 7.704,2.037c1.04,0.589 2.005,1.291 2.877,2.093c0.217,0.197 0.427,0.401 0.63,0.611c-0.233,-0.128 -0.469,-0.248 -0.709,-0.361c-1.314,-0.63 -2.73,-1.082 -4.216,-1.326c-0.483,-0.081 -0.972,-0.138 -1.47,-0.172c-0.371,-0.027 -0.745,-0.04 -1.123,-0.04c-6.137,0 -11.45,3.492 -14.019,8.577c-0.301,0.589 -0.561,1.203 -0.782,1.836c-0.495,1.404 -0.789,2.9 -0.852,4.457l0,0.004c0.373,0.02 0.749,0.033 1.128,0.036c0.088,0.002 0.175,0.002 0.264,0.002c0.086,0 0.172,0 0.259,-0.001c0.168,-0.001 0.335,-0.006 0.5,-0.011c0.161,-0.004 0.318,-0.012 0.478,-0.018c0.899,-0.043 1.787,-0.131 2.659,-0.265c1.14,-0.175 2.257,-0.425 3.343,-0.744l0,-0.002c2.479,-0.73 4.797,-1.824 6.892,-3.223c1.667,-1.113 3.193,-2.415 4.545,-3.878c-0.04,0.067 -0.081,0.133 -0.123,0.199c-1.096,1.771 -2.409,3.399 -3.903,4.843c-1.928,1.866 -4.155,3.428 -6.604,4.611c-1.014,0.49 -2.064,0.914 -3.148,1.268c-1.097,0.358 -2.226,0.644 -3.384,0.853l-0.003,0Z" style="fill:#fff;"/></svg>
