<?xml version="1.0" encoding="UTF-8" standalone="no"?><!DOCTYPE svg PUBLIC "-//W3C//DTD SVG 1.1//EN" "http://www.w3.org/Graphics/SVG/1.1/DTD/svg11.dtd"><svg width="100%" height="100%" viewBox="0 0 194 194" version="1.1" xmlns="http://www.w3.org/2000/svg" xmlns:xlink="http://www.w3.org/1999/xlink" xml:space="preserve" xmlns:serif="http://www.serif.com/" style="fill-rule:evenodd;clip-rule:evenodd;stroke-linejoin:round;stroke-miterlimit:1.41421;"><g><path d="M96.873,0c53.466,0 96.873,43.407 96.873,96.873c0,53.466 -43.407,96.873 -96.873,96.873c-53.466,0 -96.873,-43.407 -96.873,-96.873c0,-53.466 43.407,-96.873 96.873,-96.873Zm0,4.205c51.145,0 92.668,41.523 92.668,92.668c0,51.145 -41.523,92.668 -92.668,92.668c-51.145,0 -92.668,-41.523 -92.668,-92.668c0,-51.145 41.523,-92.668 92.668,-92.668Zm0,4.721c48.54,0 87.947,39.408 87.947,87.947c0,48.54 -39.407,87.947 -87.947,87.947c-48.539,0 -87.947,-39.407 -87.947,-87.947c0,-48.539 39.408,-87.947 87.947,-87.947Z" style="fill:#373b41;"/><path d="M141.26,82.042c2.042,0 3.785,0.722 5.23,2.167c1.445,1.445 2.167,3.189 2.167,5.231c0,2.042 -0.722,3.785 -2.167,5.23c-1.445,1.445 -3.188,2.167 -5.23,2.167l0,22.194c0,2.003 -0.732,3.737 -2.197,5.201c-1.464,1.464 -3.198,2.196 -5.201,2.196c-16.067,-13.369 -31.71,-20.69 -46.93,-21.962c-2.234,0.732 -3.988,2.004 -5.259,3.815c-1.272,1.811 -1.869,3.747 -1.792,5.808c0.077,2.062 0.848,3.844 2.312,5.346c-0.771,1.272 -1.214,2.534 -1.329,3.786c-0.116,1.252 0,2.369 0.347,3.352c0.346,0.982 0.992,2.042 1.936,3.179c0.944,1.136 1.868,2.1 2.774,2.889c0.905,0.79 2.09,1.763 3.554,2.919c-1.117,2.235 -3.265,3.834 -6.444,4.797c-3.179,0.963 -6.425,1.185 -9.738,0.665c-3.314,-0.52 -5.857,-1.59 -7.629,-3.208c-0.27,-0.886 -0.838,-2.572 -1.705,-5.057c-0.867,-2.485 -1.484,-4.306 -1.85,-5.462c-0.366,-1.155 -0.809,-2.87 -1.329,-5.143c-0.52,-2.274 -0.809,-4.219 -0.867,-5.838c-0.058,-1.618 0.01,-3.516 0.202,-5.692c0.193,-2.177 0.617,-4.306 1.272,-6.387l-7.051,0c-2.543,0 -4.72,-0.905 -6.531,-2.716c-1.811,-1.811 -2.716,-3.988 -2.716,-6.531l0,-11.097c0,-2.543 0.905,-4.72 2.716,-6.531c1.811,-1.81 3.988,-2.716 6.531,-2.716l27.741,0c16.761,0 34.023,-7.398 51.785,-22.193c2.003,0 3.737,0.732 5.201,2.196c1.465,1.464 2.197,3.198 2.197,5.202l0,22.193Zm-7.398,34.908l0,-55.136c-15.181,11.636 -29.976,18.244 -44.387,19.823l0,15.605c14.526,1.618 29.322,8.188 44.387,19.708Z" style="fill:#fff;fill-rule:nonzero;"/></g></svg>
