<?xml version="1.0" encoding="UTF-8" standalone="no"?><!DOCTYPE svg PUBLIC "-//W3C//DTD SVG 1.1//EN" "http://www.w3.org/Graphics/SVG/1.1/DTD/svg11.dtd"><svg width="100%" height="100%" viewBox="0 0 194 194" version="1.1" xmlns="http://www.w3.org/2000/svg" xmlns:xlink="http://www.w3.org/1999/xlink" xml:space="preserve" xmlns:serif="http://www.serif.com/" style="fill-rule:evenodd;clip-rule:evenodd;stroke-linejoin:round;stroke-miterlimit:1.41421;"><path d="M96.873,0c53.466,0 96.873,43.407 96.873,96.873c0,53.466 -43.407,96.873 -96.873,96.873c-53.466,0 -96.873,-43.407 -96.873,-96.873c0,-53.466 43.407,-96.873 96.873,-96.873Zm0,4.205c51.145,0 92.668,41.523 92.668,92.668c0,51.145 -41.523,92.668 -92.668,92.668c-51.145,0 -92.668,-41.523 -92.668,-92.668c0,-51.145 41.523,-92.668 92.668,-92.668Zm0,4.721c48.54,0 87.947,39.408 87.947,87.947c0,48.54 -39.407,87.947 -87.947,87.947c-48.539,0 -87.947,-39.407 -87.947,-87.947c0,-48.539 39.408,-87.947 87.947,-87.947Z" style="fill:#373b41;"/><path d="M148.507,65.048c-3.79,1.684 -7.86,2.82 -12.139,3.326c4.363,-2.615 7.715,-6.756 9.296,-11.689c-4.086,2.419 -8.607,4.183 -13.421,5.127c-3.857,-4.106 -9.351,-6.672 -15.433,-6.672c-11.673,0 -21.13,9.46 -21.13,21.133c0,1.655 0.183,3.271 0.544,4.817c-17.565,-0.882 -33.137,-9.296 -43.564,-22.083c-1.816,3.123 -2.859,6.752 -2.859,10.626c0,7.335 3.732,13.801 9.399,17.594c-3.461,-0.112 -6.72,-1.059 -9.57,-2.643c-0.003,0.087 -0.003,0.18 -0.003,0.264c0,10.243 7.284,18.785 16.953,20.727c-1.771,0.48 -3.638,0.741 -5.567,0.741c-1.365,0 -2.685,-0.133 -3.973,-0.377c2.685,8.391 10.494,14.503 19.738,14.677c-7.229,5.667 -16.341,9.051 -26.243,9.051c-1.706,0 -3.391,-0.1 -5.042,-0.296c9.351,5.989 20.46,9.489 32.396,9.489c38.872,0 60.134,-32.203 60.134,-60.134c0,-0.914 -0.026,-1.829 -0.064,-2.737c4.131,-2.978 7.712,-6.697 10.548,-10.941Z" style="fill:#fff;fill-rule:nonzero;"/></svg>