<?xml version="1.0" encoding="UTF-8" standalone="no"?><!DOCTYPE svg PUBLIC "-//W3C//DTD SVG 1.1//EN" "http://www.w3.org/Graphics/SVG/1.1/DTD/svg11.dtd"><svg width="100%" height="100%" viewBox="0 0 194 194" version="1.1" xmlns="http://www.w3.org/2000/svg" xmlns:xlink="http://www.w3.org/1999/xlink" xml:space="preserve" xmlns:serif="http://www.serif.com/" style="fill-rule:evenodd;clip-rule:evenodd;stroke-linejoin:round;stroke-miterlimit:1.41421;"><g><path d="M96.873,0c53.466,0 96.873,43.407 96.873,96.873c0,53.466 -43.407,96.873 -96.873,96.873c-53.466,0 -96.873,-43.407 -96.873,-96.873c0,-53.466 43.407,-96.873 96.873,-96.873Zm0,4.205c51.145,0 92.668,41.523 92.668,92.668c0,51.145 -41.523,92.668 -92.668,92.668c-51.145,0 -92.668,-41.523 -92.668,-92.668c0,-51.145 41.523,-92.668 92.668,-92.668Zm0,4.721c48.54,0 87.947,39.408 87.947,87.947c0,48.54 -39.407,87.947 -87.947,87.947c-48.539,0 -87.947,-39.407 -87.947,-87.947c0,-48.539 39.408,-87.947 87.947,-87.947Z" style="fill:#373b41;"/><path d="M148.374,84.762c0,-22.21 -18.058,-40.388 -40.387,-40.389c-0.001,0 -0.002,0 -0.003,0c-18.834,0.001 -35.144,13.036 -39.355,31.298l-13.935,0c-5.14,0 -9.322,4.182 -9.322,9.322l0,38.565c0,5.14 4.182,9.321 9.322,9.321l22.532,0l-1.994,10.086l-6.638,0c-1.77,0 -3.205,1.434 -3.205,3.204c0,1.77 1.435,3.204 3.205,3.204c1.785,0 32.54,0 34.336,0c1.77,0 3.204,-1.434 3.204,-3.204c0,-1.77 -1.434,-3.204 -3.204,-3.204l-6.639,0l-1.994,-10.085l22.533,0c5.14,0 9.322,-4.182 9.322,-9.322l0,-2.725c13.703,-6.906 22.222,-20.926 22.222,-36.071Zm-51.748,-9.091c0.417,-2.259 0.983,-4.468 1.699,-6.618l6.457,0l0,6.618l-8.156,0Zm8.156,-13.026l-3.799,0c1.101,-2.195 2.368,-4.309 3.799,-6.328l0,6.328Zm6.408,-6.42c1.493,2.064 2.786,4.199 3.885,6.42l-3.885,0l0,-6.42Zm0,12.828l6.447,0c0.691,2.223 1.218,4.53 1.585,6.931c-1.496,-0.398 -1.943,-0.313 -8.032,-0.313l0,-6.618Zm30.624,12.504l-15.623,0c-0.205,-4.392 -0.841,-8.554 -1.912,-12.504l13.831,0c1.991,3.804 3.283,8.029 3.704,12.504Zm-15.662,6.409l15.657,0c-0.418,4.428 -1.695,8.664 -3.698,12.504l-11.959,0l0,-12.504l0,0Zm7.609,-25.321l-11.679,0c-1.619,-3.865 -3.711,-7.511 -6.288,-10.957c7.106,1.678 13.358,5.592 17.967,10.957Zm-33.518,-10.989c-2.541,3.428 -4.66,7.107 -6.332,10.989l-11.795,0c4.642,-5.441 10.96,-9.34 18.127,-10.989Zm-22.431,17.397l13.801,0c-0.627,2.159 -1.124,4.368 -1.491,6.618l-14.891,0c0.637,-2.324 1.506,-4.538 2.581,-6.618Zm11.947,73.912l-7.994,0l1.994,-10.085l4.006,0l1.994,10.085Zm27.071,-16.494c-3.866,0 -60.423,0 -62.136,0c-1.607,0 -2.914,-1.307 -2.914,-2.913l0,-38.565c0,-1.606 1.307,-2.913 2.914,-2.913l62.136,0c1.606,0 2.913,1.307 2.913,2.913c0,1.188 0,37.377 0,38.565c0,1.606 -1.307,2.913 -2.913,2.913Zm9.322,-12.989l0,-6.604l7.624,0c-2.179,2.544 -4.739,4.778 -7.624,6.604Z" style="fill:#fff;fill-rule:nonzero;"/></g></svg>
